<svg width="1342" height="749" viewBox="0 0 1342 749" fill="none" xmlns="http://www.w3.org/2000/svg">
<rect width="93.2153" height="15.2799" rx="2" transform="matrix(-0.200624 -0.979668 -0.979668 0.200624 659.801 722.263)" fill="#FA78C3"/>
<path d="M996.83 619.971C1027.87 614.62 1048.72 585.317 1043.41 554.52C1038.1 523.723 1008.64 503.095 977.601 508.446C946.566 513.796 925.711 543.1 931.02 573.897C936.33 604.694 965.794 625.322 996.83 619.971Z" fill="#2D2D2D"/>
<path d="M983.934 555.594C971.033 557.628 962.5 569.491 964.876 582.089L996.239 620.842L983.935 555.594L983.934 555.594Z" fill="#C7EAFB"/>
<path d="M1012.74 574.182L1012.74 574.182C1010.37 561.583 997.981 553.018 985.08 555.052L997.384 620.3L1012.74 574.181L1012.74 574.182Z" fill="#6E00FF"/>
<path d="M1004.18 522.773C1004.21 522.47 1004.63 522.407 1004.77 522.682L1010.38 533.405C1010.44 533.529 1010.58 533.598 1010.72 533.577L1022.12 531.803C1022.42 531.757 1022.61 532.111 1022.41 532.326L1014.53 540.744C1014.44 540.838 1014.42 540.979 1014.48 541.096L1020.17 551.86C1020.31 552.131 1020.03 552.414 1019.75 552.27L1009.26 546.753C1009.13 546.687 1008.98 546.71 1008.89 546.811L1000.99 555.193C1000.79 555.411 1000.41 555.231 1000.44 554.932L1001.81 543.068C1001.82 542.938 1001.75 542.811 1001.64 542.749L991.082 537.199C990.813 537.057 990.868 536.664 991.164 536.618L1002.57 534.844C1002.7 534.823 1002.81 534.717 1002.82 534.582L1004.18 522.773Z" fill="#FFE500"/>
<path d="M955.23 531.213C955.265 530.909 955.677 530.846 955.821 531.122L961.43 541.845C961.494 541.968 961.631 542.038 961.767 542.016L973.17 540.243C973.466 540.197 973.664 540.55 973.463 540.765L965.579 549.183C965.49 549.278 965.473 549.418 965.535 549.535L971.221 560.299C971.365 560.571 971.076 560.853 970.802 560.709L960.312 555.193C960.185 555.126 960.032 555.15 959.937 555.25L952.042 563.632C951.837 563.85 951.461 563.671 951.496 563.372L952.859 551.507C952.874 551.378 952.805 551.251 952.687 551.189L942.133 545.639C941.864 545.497 941.919 545.104 942.215 545.058L953.619 543.284C953.755 543.263 953.858 543.156 953.873 543.021L955.23 531.213Z" fill="#FFE500"/>
<path d="M1038.17 529.6C1037.69 528.83 1037.85 527.827 1038.54 527.243L1051.26 516.545C1052.17 515.782 1053.55 516.072 1054.08 517.135L1056.26 521.569C1056.72 522.504 1056.31 523.636 1055.35 524.051L1040.54 530.472C1039.71 530.833 1038.74 530.529 1038.26 529.757L1038.17 529.6Z" fill="#FFE500"/>
<path d="M913.783 550.137C913.911 551.034 913.363 551.889 912.494 552.146L896.559 556.866C895.423 557.203 894.272 556.384 894.217 555.2L893.988 550.263C893.939 549.221 894.772 548.35 895.815 548.353L911.954 548.387C912.861 548.389 913.629 549.057 913.757 549.955L913.783 550.137Z" fill="#FFE500"/>
<path d="M926.446 535.35C925.981 536.067 925.08 536.366 924.279 536.069L898.854 526.644C897.658 526.201 897.274 524.7 898.108 523.737L901.607 519.694C902.192 519.019 903.179 518.865 903.94 519.331L925.893 532.757C926.77 533.293 927.032 534.446 926.473 535.308L926.446 535.35Z" fill="#FFE500"/>
<path d="M1056.47 536.042C1056.58 535.117 1057.36 534.418 1058.29 534.421L1069.81 534.451C1070.95 534.454 1071.81 535.491 1071.6 536.612L1070.75 541.185C1070.53 542.318 1069.34 542.973 1068.27 542.543L1057.57 538.239C1056.81 537.933 1056.35 537.156 1056.44 536.341L1056.47 536.042Z" fill="#FFE500"/>
<path d="M927.168 554.292C927.918 554.845 928.132 555.872 927.665 556.678L921.892 566.644C921.32 567.632 919.993 567.859 919.125 567.117L915.589 564.095C914.713 563.346 914.742 561.983 915.648 561.271L924.716 554.149C925.361 553.642 926.265 553.628 926.926 554.114L927.168 554.292Z" fill="#FFE500"/>
<path d="M1200.35 513.902C1224.39 523.439 1251.61 511.68 1261.15 487.636C1270.69 463.592 1258.93 436.369 1234.88 426.832C1210.84 417.294 1183.62 429.054 1174.08 453.098C1164.54 477.141 1176.3 504.364 1200.35 513.902Z" fill="#2D2D2D"/>
<path d="M1229.41 484.966C1233.59 474.271 1229.05 462.489 1219.27 458.649L1182.04 464.56C1181.13 464.704 1181 465.96 1181.86 466.297L1229.41 484.966L1229.41 484.966Z" fill="#C7EAFB"/>
<path d="M1204.1 497.184L1204.1 497.183C1213.88 501.022 1225.2 495.466 1229.38 484.772L1181.83 466.102C1180.97 465.765 1180.22 466.779 1180.79 467.504L1204.1 497.184L1204.1 497.184Z" fill="#6E00FF"/>
<path d="M1208.83 437.847C1215.45 440.475 1218.71 447.955 1216.1 454.541C1215.77 455.368 1214.86 455.759 1214.02 455.429C1213.19 455.099 1212.8 454.19 1213.12 453.363C1215.09 448.4 1212.62 442.769 1207.65 440.801C1202.69 438.832 1197.02 441.264 1195.06 446.197C1194.73 447.024 1193.82 447.414 1192.99 447.084C1192.16 446.754 1191.76 445.845 1192.09 445.018C1194.7 438.431 1202.2 435.219 1208.83 437.847Z" fill="white"/>
<path d="M1245.81 452.514C1252.44 455.142 1255.7 462.622 1253.08 469.208C1252.76 470.035 1251.84 470.426 1251.01 470.096C1250.18 469.766 1249.78 468.857 1250.11 468.03C1252.08 463.067 1249.6 457.436 1244.64 455.468C1239.68 453.499 1234 455.931 1232.05 460.864C1231.72 461.691 1230.81 462.081 1229.98 461.751C1229.14 461.421 1228.75 460.512 1229.08 459.685C1231.69 453.098 1239.19 449.886 1245.81 452.514Z" fill="white"/>
<path d="M1166.81 453.267C1168.11 449.967 1166.51 446.197 1163.18 444.877C1159.86 443.558 1156.11 445.175 1154.79 448.503C1153.47 451.831 1155.09 455.573 1158.42 456.893L1160.42 457.687L1180.41 465.616" stroke="#00C800" stroke-width="1.75802" stroke-linecap="round" stroke-linejoin="round"/>
<path d="M1260.14 458.16L1228.22 426.446L1279.73 408.775L1260.14 458.16Z" fill="#00C800" stroke="#00C800" stroke-width="0.0775596" stroke-linecap="round" stroke-linejoin="round"/>
<path d="M1276.35 417.309C1281.06 419.178 1286.4 416.874 1288.27 412.162C1290.14 407.45 1287.83 402.116 1283.12 400.247C1278.41 398.378 1273.07 400.682 1271.2 405.394C1269.33 410.105 1271.64 415.44 1276.35 417.309Z" fill="#6E00FF"/>
<path d="M1277.89 469.989C1279.88 471.614 1282.81 471.318 1284.44 469.328C1286.06 467.337 1285.77 464.406 1283.77 462.78C1281.78 461.154 1278.85 461.45 1277.23 463.441C1275.6 465.432 1275.9 468.363 1277.89 469.989Z" fill="#FF5A00"/>
<path d="M1255.08 492.097C1257.07 493.723 1260 493.427 1261.63 491.436C1263.25 489.446 1262.96 486.514 1260.97 484.889C1258.98 483.263 1256.04 483.559 1254.42 485.549C1252.79 487.54 1253.09 490.472 1255.08 492.097Z" fill="#FF00FF"/>
<path d="M1193.07 417.794C1195.42 418.729 1198.09 417.576 1199.02 415.22C1199.96 412.865 1198.81 410.197 1196.45 409.263C1194.1 408.328 1191.43 409.481 1190.49 411.836C1189.56 414.192 1190.71 416.86 1193.07 417.794Z" fill="#0082FF"/>
<path d="M1212.72 415.561C1215.08 416.496 1217.74 415.37 1218.66 413.048C1219.58 410.725 1218.42 408.085 1216.06 407.15C1213.7 406.216 1211.05 407.341 1210.13 409.664C1209.21 411.986 1210.37 414.627 1212.72 415.561Z" fill="#00C800"/>
<path d="M1182.07 616.915C1182.61 616.307 1183.62 616.758 1183.53 617.57L1182.62 625.683C1182.58 626.046 1182.78 626.395 1183.11 626.543L1190.59 629.874C1191.34 630.205 1191.22 631.294 1190.43 631.464L1182.43 633.176C1182.07 633.252 1181.8 633.548 1181.77 633.909L1180.89 642.074C1180.8 642.884 1179.72 643.11 1179.32 642.404L1175.26 635.332C1175.08 635.016 1174.71 634.853 1174.35 634.929L1166.31 636.627C1165.51 636.796 1164.97 635.848 1165.51 635.242L1171.02 629.126C1171.26 628.856 1171.31 628.46 1171.13 628.145L1167.06 621.063C1166.65 620.357 1167.39 619.544 1168.13 619.875L1175.62 623.207C1175.95 623.355 1176.34 623.272 1176.58 623.001L1182.07 616.915Z" fill="#F8B552"/>
<path d="M303.451 430.997C303.763 430.24 304.861 430.326 305.048 431.122L306.916 439.069C307 439.426 307.304 439.686 307.67 439.714L315.836 440.339C316.648 440.401 316.905 441.465 316.211 441.893L309.251 446.192C308.941 446.383 308.789 446.751 308.874 447.105L310.787 455.09C310.977 455.883 310.041 456.457 309.422 455.927L303.222 450.631C302.945 450.394 302.546 450.363 302.235 450.554L295.228 454.855C294.534 455.281 293.7 454.572 294.011 453.819L297.147 446.208C297.285 445.871 297.192 445.484 296.916 445.248L290.706 439.943C290.087 439.414 290.507 438.402 291.319 438.464L299.488 439.089C299.851 439.117 300.192 438.907 300.331 438.569L303.451 430.997Z" fill="#F8B552"/>
<circle cx="1182.34" cy="175.413" r="30.5" fill="#FA78C3"/>
<circle cx="245.986" cy="646.954" r="30.5" fill="#6E00FF"/>
<path d="M210.319 216.418C233.405 210.255 247.124 186.544 240.961 163.458C234.798 140.372 211.088 126.653 188.002 132.816C164.916 138.979 151.197 162.689 157.36 185.775C163.522 208.861 187.233 222.58 210.319 216.418Z" fill="#2D2D2D"/>
<path d="M197.351 167.828C187.172 170.495 180.948 180.277 183.448 189.678L210.302 216.513L197.351 167.828L197.351 167.828Z" fill="#C7EAFB"/>
<path d="M220.285 179.937L220.284 179.937C217.783 170.536 207.505 165.077 197.327 167.743L210.277 216.428L220.285 179.936L220.285 179.937Z" fill="#6E00FF"/>
<path d="M217.909 139.266C217.006 138.196 216.325 136.857 215.985 135.389C215.154 131.743 218.231 124.508 220.623 119.41C220.763 119.093 220.894 118.862 220.931 118.711C221.035 118.303 221.349 117.998 221.752 117.895C222.156 117.793 222.64 117.981 222.833 118.257C222.833 118.257 222.872 118.304 222.891 118.327C223.029 118.49 223.399 118.735 223.824 119.094C228.607 123.023 233.601 127.493 234.37 130.871C234.923 133.316 234.484 135.843 233.118 137.997C231.753 140.151 229.684 141.665 227.22 142.275C223.637 143.154 220.084 141.893 217.885 139.287L217.909 139.266ZM218.113 134.864C218.986 138.753 222.849 141.108 226.768 140.143C228.651 139.666 230.272 138.493 231.303 136.861C232.358 135.21 232.676 133.264 232.267 131.376C231.563 128.221 224.711 122.612 222.441 120.744L222.402 120.697C219.087 127.893 217.646 132.666 218.136 134.844L218.113 134.864Z" fill="#0082FF"/>
<path d="M174.703 155.339C181.065 153.641 187.599 157.395 189.287 163.72C189.499 164.514 189.038 165.305 188.24 165.518C187.441 165.732 186.647 165.275 186.435 164.481C185.163 159.717 180.225 156.903 175.46 158.175C170.696 159.447 167.825 164.375 169.089 169.112C169.301 169.906 168.84 170.697 168.041 170.91C167.243 171.124 166.448 170.667 166.236 169.873C164.548 163.549 168.342 157.037 174.703 155.339Z" fill="white"/>
<path d="M210.211 145.861C216.573 144.163 223.107 147.918 224.795 154.242C225.007 155.036 224.546 155.828 223.747 156.041C222.949 156.254 222.154 155.798 221.942 155.004C220.671 150.239 215.733 147.426 210.968 148.697C206.204 149.969 203.333 154.898 204.597 159.634C204.809 160.428 204.348 161.22 203.549 161.433C202.75 161.646 201.956 161.19 201.744 160.396C200.056 154.071 203.849 147.56 210.211 145.861Z" fill="white"/>
<path d="M1307.01 196.31C1308.75 196.863 1310.62 195.898 1311.17 194.156C1311.72 192.414 1310.76 190.553 1309.01 190.001C1307.27 189.448 1305.41 190.412 1304.86 192.155C1304.31 193.897 1305.27 195.757 1307.01 196.31Z" fill="#FF00FF"/>
<path d="M1237.33 97.9491C1241.8 99.3686 1246.58 96.8915 1248 92.4166C1249.42 87.9417 1246.94 83.1635 1242.47 81.744C1237.99 80.3246 1233.21 82.8015 1231.79 87.2764C1230.37 91.7513 1232.85 96.5297 1237.33 97.9491Z" fill="#FF5A00"/>
<path d="M1313.44 272.303C1328.85 267.866 1337.74 251.782 1333.3 236.378C1328.86 220.974 1312.78 212.084 1297.38 216.521C1281.97 220.958 1273.08 237.042 1277.52 252.446C1281.96 267.85 1298.04 276.74 1313.44 272.303Z" fill="#2D2D2D"/>
<path d="M1292.85 245.422C1297.16 244.201 1299.64 239.711 1298.4 235.393C1297.17 231.076 1292.68 228.566 1288.38 229.787C1284.07 231.008 1281.59 235.498 1282.82 239.815C1284.06 244.133 1288.55 246.643 1292.85 245.422Z" fill="white"/>
<path d="M1291.73 241.517C1293.89 240.906 1295.13 238.662 1294.51 236.503C1293.89 234.344 1291.65 233.089 1289.5 233.7C1287.35 234.31 1286.1 236.555 1286.72 238.714C1287.34 240.872 1289.58 242.127 1291.73 241.517Z" fill="#231F20"/>
<path d="M1316.55 238.6C1320.85 237.379 1323.34 232.889 1322.1 228.572C1320.86 224.254 1316.37 221.744 1312.07 222.965C1307.77 224.186 1305.28 228.676 1306.52 232.993C1307.76 237.311 1312.25 239.821 1316.55 238.6Z" fill="white"/>
<path d="M1315.43 234.695C1317.58 234.085 1318.82 231.84 1318.21 229.681C1317.59 227.523 1315.34 226.267 1313.19 226.878C1311.04 227.488 1309.8 229.733 1310.42 231.892C1311.03 234.051 1313.28 235.306 1315.43 234.695Z" fill="#231F20"/>
<path d="M1304.12 239.881C1297.33 241.801 1293.28 248.443 1295.08 254.716L1313.44 272.371L1304.12 239.881L1304.12 239.881Z" fill="#C7EAFB"/>
<path d="M1319.66 247.703L1319.66 247.703C1317.86 241.43 1310.89 237.9 1304.1 239.819L1313.42 272.309L1319.66 247.703L1319.66 247.703Z" fill="#6E00FF"/>
<path d="M1281.8 240.167C1280.4 235.294 1283.21 230.207 1288.08 228.804C1292.95 227.401 1298.04 230.213 1299.44 235.085L1281.8 240.167L1281.8 240.167Z" fill="#FA03FF"/>
<path d="M1305.49 233.347C1304.09 228.474 1306.9 223.388 1311.77 221.984C1316.64 220.581 1321.73 223.394 1323.13 228.265L1305.49 233.348L1305.49 233.347Z" fill="#FA03FF"/>
<path d="M1050.66 243.158C1055.59 243.158 1059.58 239.164 1059.58 234.237C1059.58 229.31 1055.59 225.316 1050.66 225.316C1045.74 225.316 1041.74 229.31 1041.74 234.237C1041.74 239.164 1045.74 243.158 1050.66 243.158Z" fill="#0082FF"/>
<path d="M1050.66 122.924C1055.59 122.924 1059.58 118.986 1059.58 114.129C1059.58 109.272 1055.59 105.334 1050.66 105.334C1045.74 105.334 1041.74 109.272 1041.74 114.129C1041.74 118.986 1045.74 122.924 1050.66 122.924Z" fill="#00C800"/>
<path d="M1200.02 437.523C1200.57 436.915 1201.57 437.365 1201.48 438.177L1201.12 441.365C1201.08 441.729 1201.28 442.077 1201.62 442.226L1204.58 443.543C1205.32 443.874 1205.21 444.963 1204.41 445.134L1201.24 445.811C1200.89 445.887 1200.62 446.182 1200.58 446.544L1200.24 449.775C1200.15 450.585 1199.07 450.811 1198.67 450.105L1197.07 447.315C1196.88 446.999 1196.52 446.836 1196.16 446.912L1192.97 447.585C1192.18 447.753 1191.63 446.805 1192.18 446.2L1194.36 443.774C1194.6 443.504 1194.65 443.108 1194.47 442.793L1192.86 439.992C1192.45 439.287 1193.19 438.474 1193.93 438.805L1196.89 440.123C1197.23 440.272 1197.62 440.189 1197.86 439.917L1200.02 437.523Z" fill="#F8B552"/>
<rect width="93.2153" height="15.2799" rx="2" transform="matrix(0.521562 0.853213 0.853213 -0.521562 287.445 139.132)" fill="#FED75A"/>
<rect width="61.4791" height="10.0777" rx="2" transform="matrix(-0.337282 0.941404 0.941404 0.337282 391.494 498.663)" fill="#C7EAFB"/>
<rect width="93.2153" height="15.2799" rx="2" transform="matrix(-0.455719 -0.890124 -0.890124 0.455719 919.832 174.912)" fill="#FA78C3"/>
<circle cx="18.5" cy="109.499" r="18.5" fill="#FED75A"/>
<path d="M454.835 91.3167L459.341 78.2689L453.688 77.3037L450.981 85.1366L439.901 83.5943L436.294 94.035L425.213 92.4934L420.704 105.541L426.359 106.507L429.066 98.6725L440.147 100.214L443.755 89.7744L454.835 91.3167Z" fill="#FF5A00"/>
<path d="M507.227 626.151L514.879 614.662L509.652 612.302L505.057 619.198L494.724 614.91L488.6 624.103L478.266 619.815L470.611 631.303L475.839 633.665L480.436 626.767L490.769 631.054L496.894 621.863L507.227 626.151Z" fill="#00C800"/>
<path d="M766.324 648.929L779.816 646.007L777.705 640.674L769.606 642.427L765.172 632.156L754.376 634.493L749.941 624.222L736.449 627.142L738.558 632.477L746.66 630.723L751.095 640.995L761.891 638.658L766.324 648.929Z" fill="#0082FF"/>
<path d="M675.357 156.681L684.835 160.316L685.684 156.185L679.995 154.002L681.403 145.897L673.819 142.988L675.226 134.882L665.749 131.246L664.899 135.378L670.59 137.561L669.183 145.667L676.765 148.577L675.357 156.681Z" fill="#F8B552"/>
<path d="M232.87 345.253C237.797 345.253 241.791 341.316 241.791 336.458C241.791 331.601 237.797 327.663 232.87 327.663C227.943 327.663 223.949 331.601 223.949 336.458C223.949 341.316 227.943 345.253 232.87 345.253Z" fill="#00C800"/>
<path d="M14.6785 600.253C19.6052 600.253 23.5993 596.316 23.5993 591.458C23.5993 586.601 19.6052 582.663 14.6785 582.663C9.75191 582.663 5.75781 586.601 5.75781 591.458C5.75781 596.316 9.75191 600.253 14.6785 600.253Z" fill="#FA78C3"/>
<path d="M744.347 113.748C765.663 123.366 790.739 113.882 800.356 92.5662C809.973 71.2504 800.49 46.1743 779.174 36.557C757.858 26.9398 732.782 36.4234 723.165 57.7392C713.547 79.055 723.031 104.131 744.347 113.748Z" fill="#2D2D2D"/>
<path d="M746.917 64.4649C752.876 67.1167 759.876 64.4161 762.552 58.4328C765.228 52.4496 762.565 45.4495 756.606 42.7976C750.647 40.1458 743.646 42.8465 740.971 48.8297C738.295 54.813 740.957 61.8131 746.917 64.4649Z" fill="white"/>
<path d="M749.125 59.6491C752.458 61.1336 756.367 59.6312 757.856 56.2934C759.345 52.9556 757.85 49.0464 754.517 47.5619C751.184 46.0774 747.275 47.5798 745.786 50.9176C744.297 54.2555 745.792 58.1647 749.125 59.6491Z" fill="black"/>
<path d="M747.51 52.5578C749.985 53.659 752.892 52.5375 754.003 50.0529C755.114 47.5683 754.008 44.6615 751.534 43.5603C749.059 42.4591 746.152 43.5806 745.041 46.0652C743.93 48.5498 745.035 51.4566 747.51 52.5578Z" fill="white"/>
<path d="M779.729 79.2706C785.689 81.9224 792.689 79.2217 795.364 73.2385C798.04 67.2552 795.378 60.2551 789.419 57.6033C783.459 54.9515 776.459 57.6521 773.783 63.6354C771.108 69.6187 773.77 76.6188 779.729 79.2706Z" fill="white"/>
<path d="M781.937 74.4533C785.27 75.9378 789.179 74.4354 790.668 71.0976C792.157 67.7598 790.663 63.8506 787.33 62.3661C783.997 60.8816 780.088 62.384 778.599 65.7218C777.11 69.0596 778.604 72.9689 781.937 74.4533Z" fill="black"/>
<path d="M780.323 67.3635C782.797 68.4646 785.704 67.3432 786.815 64.8586C787.926 62.374 786.821 59.4671 784.346 58.3659C781.871 57.2648 778.965 58.3862 777.853 60.8708C776.742 63.3554 777.848 66.2623 780.323 67.3635Z" fill="white"/>
<path d="M731.859 84.7895C740.581 88.7249 750.842 84.8442 754.778 76.1218C758.713 67.3993 754.832 57.1381 746.11 53.2028C737.387 49.2674 727.126 53.1481 723.191 61.8705C719.255 70.593 723.136 80.8541 731.859 84.7895Z" fill="#2D2D2D"/>
<path d="M774.421 103.99C783.143 107.925 793.405 104.044 797.34 95.3219C801.275 86.5995 797.395 76.3383 788.672 72.403C779.95 68.4676 769.689 72.3483 765.753 81.0707C761.818 89.7932 765.699 100.054 774.421 103.99Z" fill="#2D2D2D"/>
<path d="M764.597 68.7609C755.183 64.5925 744.389 68.2563 740.49 76.9439L744.403 113.754L764.598 68.7611L764.597 68.7609Z" fill="#C7EAFB"/>
<path d="M774.525 92.1586L774.524 92.1583C778.424 83.4707 773.953 73.0485 764.539 68.8801L744.344 113.873L774.526 92.1589L774.525 92.1586Z" fill="#6E00FF"/>
<path d="M807.823 77.8828C807.853 77.1648 808.404 76.577 809.119 76.5018L819.42 75.4182C821.333 75.217 822.927 76.863 822.665 78.7679V78.7679C822.434 80.4444 820.848 81.5871 819.184 81.2753L809.003 79.3666C808.296 79.234 807.793 78.602 807.823 77.8828V77.8828Z" fill="#F8B552"/>
<path d="M728.715 40.7788C728.333 41.5623 727.435 41.948 726.605 41.6851L714.632 37.8948C712.409 37.1911 711.436 34.5892 712.651 32.5994V32.5994C713.72 30.8483 716.037 30.3474 717.734 31.5004L728.122 38.5575C728.844 39.0479 729.096 39.994 728.715 40.7788V40.7788Z" fill="#F8B552"/>
<path d="M819.11 61.0041C819.037 60.1438 819.583 59.3523 820.413 59.1151L839.118 53.7705C841.707 53.0306 844.263 55.0386 844.157 57.7296V57.7296C844.076 59.7629 842.466 61.4035 840.435 61.522L821.015 62.6553C820.037 62.7124 819.192 61.9799 819.11 61.0041V61.0041Z" fill="#F8B552"/>
<path d="M725.491 24.7903C724.892 25.0442 724.197 24.8487 723.818 24.3197L713.465 9.85465C712.197 8.08386 713.088 5.59221 715.191 5.02663V5.02663C716.664 4.63041 718.208 5.3578 718.84 6.74614L726.213 22.935C726.537 23.6465 726.211 24.4851 725.491 24.7903V24.7903Z" fill="#F8B552"/>
<path d="M814.193 89.7704C814.863 88.9862 816.015 88.8316 816.868 89.4114L824.405 94.5367C826.355 95.863 826.625 98.6333 824.968 100.311V100.311C823.293 102.006 820.487 101.745 819.154 99.7699L814.054 92.2149C813.546 91.4616 813.603 90.4616 814.193 89.7704V89.7704Z" fill="#F8B552"/>
<path d="M724.286 48.8049C724.414 49.5615 723.952 50.2936 723.214 50.504L716.69 52.3638C715.002 52.8451 713.291 51.6774 713.124 49.93V49.93C712.954 48.1648 714.443 46.6863 716.207 46.8672L722.955 47.5594C723.628 47.6285 724.172 48.1379 724.286 48.8049V48.8049Z" fill="#F8B552"/>
<path d="M705.933 10.8429C706.481 10.2349 707.486 10.6851 707.395 11.4976L707.038 14.6858C706.997 15.0496 707.197 15.3977 707.531 15.5466L710.49 16.8636C711.234 17.1948 711.119 18.2834 710.322 18.454L707.159 19.1309C706.803 19.207 706.536 19.5028 706.497 19.8641L706.149 23.0951C706.062 23.9054 704.987 24.1315 704.582 23.425L702.98 20.6358C702.798 20.3197 702.433 20.1566 702.076 20.2321L698.889 20.905C698.092 21.0734 697.545 20.1255 698.09 19.5203L700.275 17.0947C700.518 16.8244 700.561 16.4287 700.38 16.1136L698.771 13.3127C698.366 12.6071 699.101 11.7945 699.845 12.1256L702.807 13.4438C703.14 13.5922 703.531 13.5089 703.776 13.2377L705.933 10.8429Z" fill="#F8B552"/>
<path d="M744.155 5.4025C744.703 4.79446 745.709 5.24472 745.618 6.0572L745.26 9.24538C745.22 9.60916 745.419 9.95725 745.754 10.1062L748.713 11.4232C749.457 11.7543 749.342 12.843 748.545 13.0135L745.381 13.6905C745.026 13.7666 744.759 14.0623 744.72 14.4236L744.372 17.6547C744.285 18.4649 743.21 18.6911 742.804 17.9846L741.202 15.1954C741.021 14.8793 740.656 14.7162 740.299 14.7916L737.112 15.4646C736.314 15.633 735.767 14.6851 736.313 14.0799L738.498 11.6542C738.741 11.384 738.783 10.9883 738.602 10.6732L736.994 7.87231C736.589 7.16672 737.324 6.35407 738.068 6.6852L741.029 8.00336C741.363 8.15174 741.754 8.0685 741.998 7.79726L744.155 5.4025Z" fill="#F8B552"/>
<path d="M700.073 49.9972C700.621 49.3892 701.627 49.8394 701.536 50.6519L701.178 53.8401C701.138 54.2039 701.337 54.552 701.672 54.7009L704.631 56.0179C705.375 56.3491 705.26 57.4377 704.463 57.6083L701.299 58.2852C700.944 58.3613 700.677 58.6571 700.638 59.0184L700.29 62.2494C700.203 63.0597 699.128 63.2858 698.722 62.5793L697.12 59.7901C696.939 59.474 696.574 59.3109 696.217 59.3864L693.029 60.0593C692.232 60.2277 691.685 59.2798 692.231 58.6746L694.416 56.249C694.659 55.9787 694.701 55.583 694.52 55.2679L692.912 52.467C692.506 51.7614 693.242 50.9488 693.986 51.2799L696.947 52.5981C697.281 52.7465 697.672 52.6632 697.916 52.392L700.073 49.9972Z" fill="#F8B552"/>
<path d="M808.292 95.9923C808.84 95.3843 809.846 95.8346 809.755 96.647L809.397 99.8352C809.356 100.199 809.556 100.547 809.89 100.696L812.85 102.013C813.594 102.344 813.479 103.433 812.682 103.603L809.518 104.28C809.162 104.356 808.895 104.652 808.857 105.013L808.509 108.245C808.421 109.055 807.347 109.281 806.941 108.574L805.339 105.785C805.158 105.469 804.793 105.306 804.435 105.381L801.248 106.054C800.451 106.223 799.904 105.275 800.449 104.67L802.634 102.244C802.878 101.974 802.92 101.578 802.739 101.263L801.13 98.4621C800.725 97.7566 801.46 96.9439 802.204 97.275L805.166 98.5932C805.499 98.7416 805.891 98.6583 806.135 98.3871L808.292 95.9923Z" fill="#F8B552"/>
<path d="M813.542 44.5119C814.09 43.9038 815.096 44.3541 815.005 45.1666L814.647 48.3548C814.606 48.7185 814.806 49.0666 815.14 49.2156L818.1 50.5326C818.844 50.8637 818.729 51.9524 817.932 52.1229L814.768 52.7998C814.412 52.876 814.145 53.1717 814.107 53.533L813.759 56.764C813.671 57.5743 812.597 57.8005 812.191 57.094L810.589 54.3047C810.408 53.9886 810.043 53.8256 809.685 53.901L806.498 54.574C805.701 54.7423 805.154 53.7945 805.699 53.1893L807.884 50.7636C808.128 50.4933 808.17 50.0976 807.989 49.7826L806.38 46.9817C805.975 46.2761 806.71 45.4634 807.454 45.7946L810.416 47.1127C810.749 47.2611 811.141 47.1779 811.385 46.9066L813.542 44.5119Z" fill="#F8B552"/>
<path d="M90.4847 419.667C105.252 423.906 120.659 415.372 124.898 400.605C129.137 385.837 120.603 370.43 105.835 366.191C91.0683 361.952 75.6608 370.487 71.4218 385.254C67.1829 400.021 75.7176 415.428 90.4847 419.667Z" fill="#2D2D2D"/>
<path d="M99.9071 388.631C93.4091 386.931 86.5838 390.357 84.663 396.283L89.9592 419.323L99.9075 388.632L99.9071 388.631Z" fill="#C7EAFB"/>
<path d="M108.206 402.745L108.206 402.745C110.127 396.819 106.416 390.636 99.9185 388.936L89.9702 419.627L108.207 402.745L108.206 402.745Z" fill="#6E00FF"/>
<path d="M91.061 374.227C95.1304 375.395 97.4909 379.627 96.3297 383.672C96.1839 384.18 95.6679 384.464 95.1569 384.317C94.646 384.171 94.3591 383.656 94.5049 383.148C95.3797 380.101 93.5878 376.916 90.5403 376.041C87.4928 375.166 84.2793 376.934 83.4097 379.963C83.2639 380.471 82.7479 380.755 82.2369 380.608C81.7259 380.462 81.439 379.947 81.5848 379.439C82.7461 375.394 86.9917 373.059 91.061 374.227Z" fill="white"/>
<path d="M113.776 380.746C117.846 381.914 120.206 386.145 119.045 390.191C118.899 390.699 118.383 390.983 117.872 390.836C117.361 390.689 117.074 390.175 117.22 389.667C118.095 386.619 116.303 383.435 113.256 382.56C110.208 381.685 106.995 383.453 106.125 386.482C105.979 386.99 105.463 387.274 104.952 387.127C104.441 386.981 104.154 386.466 104.3 385.958C105.461 381.913 109.707 379.578 113.776 380.746Z" fill="white"/>
<path d="M132.948 395.397C131.026 394.846 129.003 395.948 128.443 397.897C128.996 395.972 127.897 393.947 125.95 393.388C124.003 392.83 122.004 393.939 121.445 395.888C119.638 402.181 125.408 408.378 125.408 408.378C125.408 408.378 133.586 406.185 135.393 399.892C135.945 397.967 134.846 395.942 132.899 395.383L132.948 395.397Z" fill="#FF5A00"/>
<path d="M146.55 386.029C145.024 385.591 143.418 386.466 142.974 388.015C143.413 386.486 142.54 384.878 140.995 384.434C139.45 383.991 137.864 384.872 137.419 386.42C135.984 391.419 140.563 396.34 140.563 396.34C140.563 396.34 147.054 394.596 148.489 389.598C148.928 388.069 148.056 386.461 146.511 386.017L146.55 386.029Z" fill="#FF5A00"/>
<path d="M138.532 371.407C137.25 371.039 135.901 371.775 135.527 373.077C135.896 371.792 135.164 370.44 133.866 370.067C132.568 369.695 131.235 370.436 130.862 371.738C129.655 375.939 133.501 380.075 133.501 380.075C133.501 380.075 138.954 378.609 140.16 374.407C140.529 373.121 139.797 371.77 138.499 371.397L138.532 371.407Z" fill="#FF5A00"/>
<ellipse cx="449.758" cy="730.163" rx="19" ry="18.5" fill="#6E00FF"/>
</svg>
